<svg width="55" height="45" viewBox="0 0 55 45" fill="none" xmlns="http://www.w3.org/2000/svg">
<path d="M47.0618 0H7.94085C3.56314 0 0 3.711 0 8.27039V36.7296C0 41.289 3.56314 45 7.94085 45H47.0591C51.4369 45 55 41.289 55 36.7296V8.27039C55 3.711 51.4369 0 47.0591 0H47.0618ZM47.0618 3.95183C47.3876 3.95183 47.7003 3.99562 48.0051 4.06951L31.5006 23.5714C30.489 24.7674 29.0306 25.4516 27.5013 25.4516C25.972 25.4516 24.5136 24.7646 23.502 23.5714L6.99752 4.06951C7.2997 3.99562 7.61502 3.95183 7.94085 3.95183H47.0591H47.0618ZM51.2056 36.7269C51.2056 39.1078 49.3479 41.0427 47.0618 41.0427H7.94085C5.65477 41.0427 3.797 39.1051 3.797 36.7269V8.26765C3.797 7.68747 3.90999 7.13738 4.10707 6.63109L20.6536 26.185C22.3852 28.2321 24.8815 29.4034 27.4987 29.4034C30.1159 29.4034 32.6122 28.2293 34.3438 26.185L50.8903 6.63109C51.09 7.13465 51.2004 7.68747 51.2004 8.26765V36.7269H51.2056Z" fill="#1D1D1C"/>
</svg>
