<svg width="55" height="55" viewBox="0 0 55 55" fill="none" xmlns="http://www.w3.org/2000/svg">
<path d="M42.0614 9.81977C40.2807 9.81977 38.8365 11.264 38.8365 13.0447C38.8365 14.8254 40.2807 16.2696 42.0614 16.2696C43.8421 16.2696 45.2864 14.8254 45.2864 13.0447C45.2864 11.264 43.8421 9.81977 42.0614 9.81977Z" fill="#1D1D1C"/>
<path d="M27.7252 13.9558C20.2555 13.9558 14.1809 20.0329 14.1809 27.5C14.1809 34.9671 20.2581 41.0442 27.7252 41.0442C35.1922 41.0442 41.2694 34.9671 41.2694 27.5C41.2694 20.0329 35.1922 13.9558 27.7252 13.9558ZM27.7252 36.1758C22.9395 36.1758 19.0494 32.2831 19.0494 27.5C19.0494 22.7169 22.9421 18.8242 27.7252 18.8242C32.5082 18.8242 36.4009 22.7169 36.4009 27.5C36.4009 32.2831 32.5082 36.1758 27.7252 36.1758Z" fill="#1D1D1C"/>
<path d="M38.4793 55H16.5207C7.41012 55 0 47.5899 0 38.4793V16.5207C0 7.41012 7.41012 0 16.5207 0H38.4793C47.5899 0 55 7.41012 55 16.5207V38.4793C55 47.5899 47.5873 55 38.4793 55ZM16.5207 5.17388C10.2649 5.17388 5.17388 10.2624 5.17388 16.5207V38.4793C5.17388 44.7351 10.2624 49.8261 16.5207 49.8261H38.4793C44.7351 49.8261 49.8261 44.7377 49.8261 38.4793V16.5207C49.8261 10.2649 44.7351 5.17388 38.4793 5.17388H16.5207Z" fill="#1D1D1C"/>
</svg>
