<svg width="55" height="55" viewBox="0 0 55 55" fill="none" xmlns="http://www.w3.org/2000/svg">
<path d="M0.906932 18.258H12.3179V55H0.906932V18.258ZM6.61496 0C10.2632 0 13.2197 2.96853 13.2197 6.61756C13.2197 10.2666 10.2632 13.2454 6.61496 13.2454C2.96674 13.2454 0 10.2743 0 6.61756C0 2.96083 2.95649 0 6.61496 0ZM19.4683 55H30.8562V36.8267C30.8562 32.035 31.7605 27.3947 37.694 27.3947C43.6275 27.3947 43.6147 32.8747 43.6147 37.1375V55H55V34.8494C55 24.9552 52.8736 17.349 41.3371 17.349C35.7879 17.349 32.0705 20.3945 30.5487 23.2835H30.3976V18.258H19.4683V55Z" fill="#1D1D1C"/>
</svg>
