<svg width="55" height="55" viewBox="0 0 55 55" fill="none" xmlns="http://www.w3.org/2000/svg">
<path d="M0 54.9974L3.95433 40.2859C1.7151 36.2586 0.537105 31.7447 0.537105 27.1635C0.537105 12.1854 12.753 0 27.7686 0C42.7841 0 55 12.1854 55 27.1635C55 42.1416 42.7841 54.3296 27.7686 54.3296C23.2615 54.3296 18.809 53.1934 14.8236 51.0374L0 55V54.9974ZM15.5631 45.5219L16.4971 46.0783C19.9248 48.1153 23.822 49.192 27.7711 49.192C39.9481 49.192 49.8573 39.3101 49.8573 27.1609C49.8573 15.0118 39.9507 5.13247 27.7711 5.13247C15.5916 5.13247 5.685 15.0144 5.685 27.1609C5.685 31.1727 6.80332 35.1224 8.91541 38.5828L9.48884 39.5198L7.28334 47.7348L15.5656 45.5219H15.5631Z" fill="#010101"/>
<path fill-rule="evenodd" clip-rule="evenodd" d="M37.9009 30.9398C36.78 30.272 35.3217 29.524 34.001 30.0624C32.9891 30.4765 32.3404 32.0579 31.684 32.8654C31.3467 33.2795 30.9445 33.3442 30.4281 33.1372C26.6243 31.6256 23.7104 29.0944 21.6139 25.6054C21.2584 25.0619 21.3233 24.6348 21.7514 24.1327C22.3845 23.3873 23.1811 22.5435 23.3524 21.5393C23.5236 20.5351 23.0514 19.3626 22.6362 18.4696C22.1043 17.3282 21.5101 15.7002 20.3633 15.0532C19.3098 14.4605 17.9216 14.7918 16.9824 15.5553C15.3607 16.8727 14.5797 18.9355 14.603 20.9802C14.6108 21.56 14.6809 22.1398 14.8184 22.7014C15.1453 24.0499 15.7706 25.3078 16.4738 26.5061C17.0031 27.4094 17.5791 28.2842 18.2019 29.128C20.2361 31.8845 22.766 34.2786 25.6954 36.0696C27.1588 36.9652 28.7364 37.7494 30.3684 38.2878C32.2003 38.8908 33.8324 39.5198 35.8095 39.1445C37.8801 38.7536 39.9222 37.4751 40.7421 35.4847C40.986 34.8946 41.1079 34.2398 40.9704 33.616C40.6902 32.3296 38.944 31.5635 37.8983 30.9424L37.9009 30.9398Z" fill="#010101"/>
</svg>
