<svg width="360" height="80" viewBox="0 0 360 80" fill="none" xmlns="http://www.w3.org/2000/svg">
<path d="M34.7969 24.3023H44.3233L32.3902 55.8023H23.4654L11.5322 24.3023H21.2592L28.0782 43.9023L34.8971 24.3023H34.7969Z" fill="#F5F5F7"/>
<path d="M46.8303 55.7023V24.2023H55.5545V55.7023H46.8303Z" fill="#F5F5F7"/>
<path d="M80.0225 24.3023H88.7467V55.8023H80.0225L69.5935 39.7023V55.8023H60.8693V24.3023H69.5935L80.0225 40.4023V24.3023Z" fill="#F5F5F7"/>
<path d="M93.9612 55.7023V24.2023H102.685V55.7023H93.9612Z" fill="#F5F5F7"/>
<path d="M123.243 56.3023C120.936 56.3023 118.63 55.9023 116.624 55.0023C114.619 54.1023 112.713 53.0023 111.309 51.6023C109.805 50.2023 108.602 48.4023 107.8 46.4023C106.897 44.4023 106.496 42.2023 106.496 39.9023C106.496 37.6023 107.198 34.1023 108.702 31.6023C110.206 29.1023 112.212 27.2023 114.719 25.7023C117.326 24.3023 120.134 23.6023 123.243 23.6023C126.351 23.6023 128.858 24.2023 131.365 25.5023C133.872 26.8023 135.777 28.5023 137.282 30.7023L129.761 35.4023C129.059 34.4023 128.156 33.5023 126.953 32.9023C125.85 32.3023 124.546 32.0023 123.243 32.0023C121.036 32.0023 119.131 32.8023 117.627 34.3023C116.123 35.8023 115.421 37.7023 115.421 39.9023C115.421 42.1023 116.123 44.0023 117.627 45.6023C119.131 47.2023 120.936 47.9023 123.243 47.9023C125.549 47.9023 125.85 47.6023 126.953 47.0023C128.056 46.4023 129.059 45.6023 129.761 44.5023L137.282 49.2023C135.777 51.4023 133.772 53.1023 131.365 54.4023C128.858 55.7023 126.251 56.3023 123.243 56.3023Z" fill="#F5F5F7"/>
<path d="M140.39 55.7023V24.2023H149.114V55.7023H140.39Z" fill="#F5F5F7"/>
<path d="M172.58 55.3023C170.975 56.0023 169.17 56.3023 167.265 56.3023C165.36 56.3023 163.655 56.0023 161.95 55.3023C160.346 54.6023 158.841 53.8023 157.738 52.6023C156.535 51.5023 155.633 50.1023 154.931 48.5023C154.229 46.9023 153.928 45.2023 153.928 43.4023V24.2023H162.652V43.2023C162.652 44.5023 163.053 45.6023 163.956 46.5023C164.858 47.4023 165.961 47.8023 167.265 47.8023C168.568 47.8023 169.672 47.4023 170.574 46.5023C171.477 45.6023 171.878 44.5023 171.878 43.2023V24.2023H180.602V43.4023C180.602 45.2023 180.301 46.9023 179.599 48.5023C178.897 50.1023 177.995 51.5023 176.791 52.6023C175.588 53.7023 174.184 54.6023 172.58 55.3023Z" fill="#F5F5F7"/>
<path d="M197.248 56.3023C194.741 56.3023 192.234 55.8023 189.727 54.9023C187.22 54.0023 185.014 52.8023 183.309 51.3023L187.722 44.6023C189.126 45.8023 190.63 46.7023 192.334 47.4023C194.039 48.1023 195.644 48.4023 197.148 48.4023C198.652 48.4023 199.153 48.2023 199.956 47.9023C200.758 47.5023 201.159 47.1023 201.159 46.5023C201.159 45.9023 200.758 45.5023 199.956 45.2023C199.153 44.9023 197.85 44.4023 195.844 44.0023C188.323 42.1023 184.613 38.6023 184.613 33.5023C184.613 28.4023 185.816 28.2023 188.123 26.4023C190.429 24.6023 193.538 23.7023 197.348 23.7023C201.159 23.7023 201.961 24.1023 203.967 24.8023C205.972 25.5023 207.677 26.4023 208.88 27.6023L204.869 34.3023C203.867 33.5023 202.763 32.8023 201.36 32.3023C199.956 31.8023 198.552 31.6023 197.248 31.6023C195.944 31.6023 195.243 31.8023 194.641 32.1023C193.939 32.4023 193.638 32.8023 193.638 33.3023C193.638 34.3023 195.243 35.2023 198.351 35.9023C198.853 36.0023 199.454 36.1023 199.855 36.3023C200.357 36.4023 200.958 36.6023 201.861 36.9023C202.763 37.2023 203.465 37.5023 204.167 37.9023C204.869 38.3023 205.571 38.7023 206.373 39.3023C207.176 39.9023 207.777 40.5023 208.379 41.1023C208.88 41.8023 209.382 42.5023 209.683 43.5023C210.084 44.4023 210.184 45.4023 210.184 46.5023C210.184 48.5023 209.582 50.2023 208.479 51.8023C207.376 53.3023 205.772 54.5023 203.867 55.4023C201.961 56.3023 199.755 56.7023 197.348 56.7023L197.248 56.3023Z" fill="#F5F5F7"/>
<path d="M320.39 43.3023C319.488 42.9023 318.786 42.8023 318.084 42.8023H315.777C315.577 42.7023 315.376 42.4023 315.376 42.0023C315.376 41.6023 315.376 41.2023 315.677 40.9023C315.978 40.5023 316.379 40.2023 316.88 39.8023C317.382 39.4023 317.984 39.1023 318.485 38.8023C319.087 38.5023 319.688 38.3023 320.29 38.1023C320.892 37.9023 321.393 37.8023 321.794 37.7023C321.995 37.7023 322.095 37.7023 322.295 37.5023C322.396 37.3023 322.496 37.1023 322.295 36.9023C322.095 36.5023 321.794 36.3023 321.393 36.3023C320.892 36.3023 320.19 36.3023 319.387 36.5023C318.585 36.7023 317.783 36.9023 317.081 37.2023C316.279 37.5023 315.577 37.9023 314.875 38.3023C314.173 38.7023 313.772 39.2023 313.471 39.6023C312.97 40.6023 312.769 41.6023 312.869 42.6023C312.869 42.8023 312.869 43.0023 313.07 43.2023C312.568 43.4023 312.067 43.6023 311.566 43.9023C311.064 44.3023 310.463 44.6023 309.861 45.0023C309.259 45.4023 308.758 45.7023 308.156 46.1023C307.755 46.3023 307.454 46.5023 307.053 46.6023C306.652 46.8023 306.351 46.9023 305.95 47.1023C305.85 47.1023 305.649 47.1023 305.449 47.1023C305.248 47.1023 305.248 47.1023 305.148 47.0023C305.148 47.0023 305.048 46.9023 305.048 46.8023V46.3023C305.048 46.0023 305.248 45.7023 305.348 45.3023L305.75 44.2023C305.75 44.0023 305.95 43.8023 306.05 43.6023C306.05 43.4023 306.251 43.2023 306.351 43.0023C306.351 42.6023 306.552 42.3023 306.752 41.9023C306.953 41.5023 307.053 41.2023 307.254 40.8023C307.555 40.2023 307.755 39.6023 307.755 38.9023C307.755 38.6023 307.755 38.3023 307.655 38.1023C307.454 37.9023 307.153 37.7023 306.752 37.6023C306.451 37.6023 306.151 37.6023 305.75 37.5023C305.449 37.5023 305.148 37.4023 304.847 37.2023H304.747C304.446 37.1023 304.145 37.1023 303.844 37.2023C303.644 37.2023 303.443 37.2023 303.343 37.3023C303.142 37.3023 303.042 37.3023 302.841 37.5023L301.036 38.3023C300.234 38.6023 299.532 39.1023 298.931 39.8023C298.73 40.0023 298.63 40.2023 298.429 40.3023C298.229 40.5023 298.128 40.7023 297.828 40.8023C297.627 41.0023 297.426 41.2023 297.326 41.3023C297.126 41.4023 297.025 41.6023 296.825 41.8023C296.624 42.0023 296.424 42.3023 296.123 42.5023C296.022 42.6023 295.922 42.7023 295.822 42.8023C295.822 42.8023 295.722 42.8023 295.621 42.9023C295.22 43.2023 294.919 43.5023 294.719 43.9023C294.619 44.0023 294.518 44.2023 294.418 44.3023C293.716 45.2023 292.914 46.1023 292.011 47.1023C290.908 48.3023 289.905 49.5023 288.802 50.6023C287.8 51.7023 286.797 52.6023 285.995 53.4023C285.192 54.2023 284.591 54.7023 284.29 54.9023C284.29 54.9023 284.29 55.0023 284.19 55.1023C284.19 55.1023 284.089 55.2023 283.989 55.3023C283.789 55.7023 283.488 56.0023 283.087 56.3023C282.685 56.6023 282.385 56.9023 281.984 57.2023C281.984 57.2023 281.983 57.2023 281.883 57.2023H281.683C281.582 57.1023 281.482 57.0023 281.582 56.9023C281.683 56.2023 281.983 55.5023 282.385 54.9023C282.886 53.9023 283.387 52.9023 283.889 52.0023C284.39 51.1023 284.892 50.2023 285.393 49.3023C285.393 49.3023 285.493 49.1023 285.594 49.0023C285.594 48.9023 285.694 48.8023 285.794 48.7023L286.797 46.9023C287.098 46.5023 287.298 46.0023 287.499 45.6023C287.699 45.2023 288 44.8023 288.201 44.4023C288.301 44.1023 288.502 43.8023 288.702 43.4023C288.903 43.0023 289.103 42.6023 289.204 42.2023C289.304 41.8023 289.304 41.4023 289.204 41.1023C289.204 40.7023 289.003 40.5023 288.602 40.2023L288.301 40.0023C287.499 39.7023 286.697 39.8023 285.995 40.0023C285.594 40.0023 285.293 40.2023 285.092 40.3023C284.892 40.4023 284.591 40.6023 284.29 40.8023L282.786 41.8023C282.585 42.0023 282.184 42.2023 281.783 42.6023C281.382 43.0023 280.981 43.2023 280.68 43.4023C280.68 43.4023 280.479 43.2023 280.479 42.9023C280.479 42.6023 280.479 42.5023 280.479 42.4023C280.88 41.3023 281.382 40.2023 282.084 38.9023C282.685 37.7023 283.488 36.3023 284.29 34.8023C285.092 33.3023 285.995 31.7023 286.997 29.9023C288 28.1023 289.003 26.2023 290.006 24.0023L290.808 22.5023L293.014 18.8023C293.014 18.6023 293.215 18.4023 293.315 18.3023C293.415 18.1023 293.616 17.9023 293.716 17.7023V17.5023C293.716 17.5023 293.716 17.4023 293.816 17.3023C293.816 17.1023 293.816 16.9023 293.816 16.8023C293.516 16.2023 293.114 15.9023 292.613 15.9023C292.011 15.9023 291.61 16.3023 291.209 16.9023C291.209 16.9023 291.009 17.1023 290.908 17.3023C290.908 17.5023 290.808 17.6023 290.808 17.8023C290.808 18.1023 290.708 18.3023 290.507 18.4023C290.407 18.6023 290.307 18.7023 290.206 19.0023C289.905 19.8023 289.404 20.6023 288.802 21.7023C288.201 22.7023 287.599 23.7023 287.198 24.8023C286.997 25.2023 286.797 25.6023 286.596 25.9023C286.396 26.3023 286.195 26.7023 285.995 27.1023C285.694 27.9023 285.293 28.7023 284.892 29.5023L283.989 31.0023C283.789 31.3023 283.688 31.6023 283.488 31.9023C283.287 32.2023 283.187 32.5023 282.986 32.8023C282.786 33.0023 282.685 33.1023 282.685 33.3023C282.685 33.7023 282.485 34.0023 282.284 34.3023C282.084 34.6023 281.983 34.9023 281.783 35.1023L280.379 37.8023C279.878 38.8023 279.376 39.7023 278.975 40.6023C278.574 41.5023 278.073 42.3023 277.672 43.2023C277.571 43.5023 277.371 43.8023 277.27 44.1023C277.17 44.1023 276.97 44.2023 276.869 44.3023C276.669 44.4023 276.468 44.5023 276.268 44.6023C275.666 45.0023 275.064 45.4023 274.463 45.7023C273.861 46.0023 273.259 46.4023 272.658 46.8023C272.256 47.2023 271.755 47.6023 271.254 47.9023C270.752 48.2023 270.251 48.5023 269.75 48.8023H269.549C269.449 48.8023 269.348 48.8023 269.348 48.6023C269.348 48.2023 269.348 47.8023 269.549 47.3023L270.752 44.2023L273.059 39.1023C273.059 38.9023 273.259 38.6023 273.36 38.2023C273.36 38.2023 273.36 37.9023 273.259 37.7023V37.5023C273.259 37.5023 273.259 37.4023 273.159 37.3023C272.958 37.0023 272.557 36.9023 272.056 36.9023C271.555 36.9023 270.853 37.1023 270.351 37.4023C269.95 37.8023 269.649 38.1023 269.148 38.3023C268.747 38.6023 268.346 38.9023 267.945 39.2023C267.945 39.2023 267.744 39.2023 267.644 39.2023C267.543 39.2023 267.443 39.2023 267.343 39.1023C267.343 38.9023 267.343 38.7023 267.443 38.5023C267.443 38.3023 267.543 38.1023 267.543 37.9023C267.543 37.5023 267.543 37.1023 267.042 36.8023C267.042 36.7023 266.841 36.6023 266.641 36.6023C266.44 36.6023 266.34 36.6023 266.24 36.6023H265.538C265.237 36.6023 265.036 36.7023 264.936 36.9023C264.936 37.1023 264.736 37.3023 264.635 37.6023C264.535 37.8023 264.435 38.1023 264.334 38.3023C264.234 38.7023 264.034 39.2023 263.833 39.6023C263.633 40.0023 263.532 40.4023 263.332 40.8023C263.131 41.1023 263.031 41.4023 262.931 41.7023C262.83 42.1023 262.63 42.6023 262.429 43.0023C262.429 43.2023 262.229 43.4023 262.128 43.6023C261.928 43.6023 261.727 43.8023 261.627 43.9023C261.126 44.3023 260.524 44.6023 259.922 45.0023C259.321 45.4023 258.819 45.7023 258.217 46.1023C257.816 46.3023 257.516 46.5023 257.114 46.6023C256.713 46.8023 256.412 46.9023 256.011 47.1023C255.911 47.1023 255.711 47.1023 255.51 47.1023C255.309 47.1023 255.309 47.1023 255.209 47.0023C255.209 47.0023 255.109 46.9023 255.109 46.8023V46.3023C255.109 46.0023 255.309 45.7023 255.41 45.3023L255.811 44.2023C255.811 44.0023 256.011 43.8023 256.112 43.6023C256.112 43.4023 256.312 43.2023 256.412 43.0023C256.412 42.6023 256.613 42.3023 256.814 41.9023C257.014 41.5023 257.114 41.2023 257.315 40.8023C257.616 40.2023 257.816 39.6023 257.816 38.9023C257.816 38.6023 257.816 38.3023 257.716 38.1023C257.516 37.9023 257.215 37.7023 256.814 37.6023C256.513 37.6023 256.212 37.6023 255.811 37.5023C255.51 37.5023 255.209 37.4023 254.908 37.2023H254.808C254.507 37.1023 254.206 37.1023 253.905 37.2023C253.705 37.2023 253.504 37.2023 253.404 37.3023C253.204 37.3023 253.103 37.3023 252.903 37.5023L251.098 38.3023C250.295 38.6023 249.594 39.1023 248.992 39.8023C248.791 40.0023 248.691 40.2023 248.49 40.3023C248.29 40.5023 248.19 40.7023 247.889 40.8023C247.688 41.0023 247.488 41.2023 247.387 41.3023C247.187 41.4023 247.087 41.6023 246.886 41.8023C246.685 42.0023 246.485 42.3023 246.184 42.5023C245.983 42.7023 245.783 43.0023 245.482 43.2023C245.181 43.5023 244.88 43.7023 244.68 44.0023C244.479 44.3023 244.279 44.6023 243.978 44.9023C243.677 45.1023 243.477 45.3023 243.176 45.5023C242.574 46.1023 241.972 46.6023 241.27 47.1023C240.669 47.6023 239.967 48.1023 239.365 48.6023C238.763 49.0023 238.162 49.5023 237.56 49.9023C236.958 50.3023 236.357 50.8023 235.855 51.4023C235.655 51.6023 235.454 51.7023 235.254 51.9023C235.053 52.0023 234.853 52.2023 234.652 52.3023C233.95 52.8023 233.348 53.2023 232.646 53.7023C231.944 54.1023 231.343 54.6023 230.641 55.3023C230.641 55.3023 230.44 55.3023 230.44 55.4023C230.44 55.4023 230.34 55.4023 230.24 55.5023C229.538 55.8023 228.836 56.2023 228.234 56.7023C227.633 57.2023 227.031 57.6023 226.329 58.1023C225.226 58.9023 224.223 59.6023 223.12 60.2023C222.017 60.9023 220.914 61.5023 219.711 62.1023C219.009 62.5023 218.307 62.8023 217.504 63.1023C216.802 63.3023 216 63.6023 215.298 63.8023C214.797 63.9023 214.295 64.0023 213.894 64.0023C213.493 64.0023 212.992 64.0023 212.49 63.8023C212.49 63.8023 212.29 63.8023 212.29 63.7023C212.29 63.7023 212.19 63.7023 212.089 63.7023C211.387 63.3023 210.886 62.7023 210.585 61.9023C210.284 61.0023 210.184 60.0023 210.184 59.1023C210.184 58.2023 210.184 57.4023 210.385 56.6023C210.585 55.6023 210.886 54.6023 211.187 53.6023C211.488 52.6023 211.789 51.7023 212.19 50.7023C212.691 49.4023 213.192 48.1023 213.694 46.8023C214.195 45.5023 214.797 44.2023 215.399 42.9023C215.699 42.3023 216 41.7023 216.301 41.1023C216.602 40.5023 216.903 40.0023 217.304 39.3023C217.705 38.8023 218.006 38.2023 218.307 37.7023C218.607 37.1023 219.009 36.6023 219.309 36.0023C220.312 34.4023 221.415 32.9023 222.518 31.3023C223.621 29.8023 224.825 28.3023 226.028 26.9023C226.63 26.3023 227.131 25.7023 227.733 25.0023C228.234 24.4023 228.836 23.8023 229.438 23.1023C230.24 22.4023 230.942 21.7023 231.744 21.0023C232.546 20.3023 233.348 19.6023 234.151 19.0023C234.552 18.7023 234.853 18.5023 235.153 18.3023C235.454 18.1023 235.755 17.9023 236.156 17.7023C236.156 17.7023 236.357 17.7023 236.457 17.7023C236.557 17.7023 236.557 17.7023 236.658 17.8023C236.557 18.2023 236.357 18.7023 236.156 19.0023C235.956 19.4023 235.755 19.8023 235.454 20.2023C235.454 20.4023 235.254 20.6023 235.254 20.8023C235.254 21.0023 235.153 21.2023 235.053 21.4023C235.053 21.8023 234.853 22.2023 234.752 22.6023C234.652 23.0023 234.552 23.3023 234.451 23.7023C234.451 23.8023 234.451 24.0023 234.351 24.1023C234.351 24.2023 234.351 24.4023 234.251 24.5023C233.75 25.7023 233.348 26.8023 232.947 28.0023C232.546 29.2023 232.245 30.3023 231.844 31.5023C231.744 32.0023 231.543 32.5023 231.443 33.0023C231.343 33.5023 231.243 34.1023 231.042 34.6023C230.942 35.1023 230.841 35.6023 230.741 36.2023C230.741 36.8023 230.641 37.3023 230.541 37.8023C230.541 38.4023 230.541 39.0023 230.641 39.7023C230.641 39.9023 230.841 40.0023 230.942 40.0023C231.042 40.0023 231.142 40.0023 231.243 40.0023C231.543 39.7023 231.844 39.4023 232.045 39.0023C232.245 38.5023 232.446 37.9023 232.646 37.4023C232.847 36.9023 232.947 36.3023 233.148 35.7023C233.148 35.2023 233.348 34.7023 233.549 34.2023C233.75 33.7023 233.85 33.2023 234.05 32.7023C234.251 32.0023 234.552 31.3023 234.853 30.7023C235.153 30.1023 235.354 29.4023 235.655 28.8023C235.956 27.8023 236.357 26.9023 236.758 26.0023C237.159 25.1023 237.56 24.3023 237.961 23.4023C238.162 23.0023 238.362 22.6023 238.563 22.2023C238.763 21.8023 238.964 21.4023 239.165 21.1023C239.666 20.3023 240.268 19.4023 240.769 18.6023C241.27 17.8023 241.872 17.0023 242.474 16.3023C242.474 16.3023 242.674 16.1023 242.775 15.8023C242.775 15.8023 242.775 15.8023 242.875 15.6023C242.875 15.2023 242.875 14.9023 242.875 14.6023C242.775 14.3023 242.574 14.1023 242.273 14.0023C242.073 14.0023 241.972 13.8023 241.772 13.8023C241.571 13.8023 241.471 13.7023 241.27 13.6023H240.568C239.967 13.6023 239.365 13.6023 238.763 13.3023C238.061 13.0023 237.46 12.9023 236.758 12.9023C236.357 12.9023 236.056 12.9023 235.755 12.9023C235.454 12.9023 235.053 12.9023 234.752 12.9023C234.151 12.9023 233.75 13.2023 233.449 13.6023C233.048 14.0023 232.747 14.5023 232.245 14.9023C231.844 15.3023 231.443 15.7023 231.042 16.2023C230.641 16.6023 230.34 17.1023 229.939 17.5023C229.538 17.9023 229.137 18.3023 228.736 18.7023C228.435 19.0023 228.234 19.3023 228.034 19.4023C227.733 19.8023 227.432 20.2023 227.131 20.6023C226.83 21.0023 226.429 21.3023 226.128 21.7023C225.727 22.1023 225.426 22.5023 225.126 22.9023C224.825 23.3023 224.524 23.8023 224.223 24.2023C224.223 24.3023 224.022 24.5023 223.922 24.6023C223.822 24.7023 223.722 24.9023 223.521 25.0023C222.418 26.3023 221.315 27.6023 220.412 28.9023C219.41 30.2023 218.507 31.6023 217.504 33.0023C217.103 33.8023 216.602 34.5023 216.201 35.2023C215.8 35.9023 215.399 36.7023 214.997 37.6023C214.797 38.0023 214.596 38.5023 214.396 38.9023C214.195 39.3023 213.894 39.7023 213.594 40.1023C213.393 40.3023 213.293 40.5023 213.092 40.8023C212.892 41.5023 212.591 42.2023 212.29 42.9023C211.989 43.6023 211.688 44.3023 211.387 44.9023C210.485 46.9023 209.683 48.8023 209.081 50.7023C208.479 52.6023 207.878 54.6023 207.276 56.7023C207.276 57.0023 207.276 57.3023 207.176 57.5023C207.176 57.7023 207.176 58.0023 207.176 58.3023C207.176 59.2023 207.176 60.1023 207.376 60.9023C207.677 62.4023 208.379 63.5023 209.482 64.2023C210.385 64.8023 211.387 65.3023 212.39 65.8023C212.49 65.8023 212.691 65.9023 212.791 66.0023C212.892 66.0023 212.992 66.0023 213.092 66.1023C213.594 66.1023 214.095 66.3023 214.496 66.3023C214.897 66.3023 215.399 66.3023 215.9 66.3023C217.103 66.3023 218.206 66.0023 219.209 65.7023C220.212 65.4023 221.315 65.0023 222.318 64.5023C222.819 64.2023 223.421 63.9023 223.922 63.6023C224.424 63.3023 225.025 63.0023 225.527 62.6023C226.73 61.8023 227.833 61.1023 228.936 60.3023C230.039 59.5023 231.142 58.7023 232.346 57.8023C232.747 57.6023 233.048 57.3023 233.348 57.0023C233.649 56.7023 234.05 56.5023 234.351 56.2023C235.153 55.7023 235.855 55.1023 236.557 54.5023C237.259 53.9023 237.961 53.4023 238.763 52.8023C239.365 52.3023 239.867 51.8023 240.468 51.3023C241.07 50.8023 241.571 50.3023 242.073 49.8023C242.574 49.3023 242.975 48.8023 243.477 48.3023C243.577 48.4023 243.777 48.6023 243.978 48.9023C244.379 49.3023 244.78 49.4023 245.181 49.4023C246.485 49.5023 247.688 49.2023 248.691 48.5023C248.992 48.4023 249.192 48.2023 249.393 48.0023C249.594 47.8023 249.794 47.6023 249.995 47.4023C250.195 47.3023 250.396 47.1023 250.596 47.0023C250.797 46.9023 250.997 46.7023 251.198 46.5023C251.499 46.3023 251.8 45.9023 252.1 45.5023C252.1 45.5023 252.1 45.5023 252.201 45.5023C252.301 45.5023 252.201 45.5023 252.301 45.5023C252.502 45.5023 252.602 45.5023 252.602 45.8023C252.602 46.0023 252.602 46.2023 252.602 46.4023C252.602 46.6023 252.401 46.9023 252.401 47.1023C252.401 47.5023 252.502 48.0023 252.903 48.5023C252.903 48.5023 253.103 48.5023 253.204 48.7023C253.204 48.7023 253.404 48.8023 253.504 48.9023C254.006 49.1023 254.607 49.2023 255.209 49.2023C256.212 49.2023 257.014 49.0023 257.716 48.7023C258.117 48.5023 258.418 48.3023 258.819 48.1023C259.22 47.9023 259.521 47.7023 259.822 47.5023C260.424 47.1023 260.925 46.7023 261.527 46.2023C261.527 46.4023 261.527 46.5023 261.727 46.7023C261.928 47.1023 262.229 47.3023 262.63 47.1023L263.131 46.9023C263.633 46.7023 263.933 46.4023 264.034 46.2023C264.034 46.1023 264.234 46.0023 264.334 45.9023C264.334 45.9023 264.535 45.8023 264.635 45.7023C265.036 45.7023 265.337 45.4023 265.638 45.2023C265.939 45.0023 266.24 44.7023 266.541 44.4023L268.145 42.8023C268.145 42.8023 268.346 42.8023 268.446 42.8023C268.646 42.8023 268.747 43.0023 268.747 43.2023V43.9023C268.646 43.9023 268.045 45.6023 268.045 45.6023C267.744 46.2023 267.543 46.8023 267.343 47.4023C267.142 48.0023 266.942 48.6023 266.741 49.2023L266.44 50.3023C266.34 50.9023 266.24 51.3023 266.44 51.5023C266.44 51.7023 266.741 52.0023 267.042 52.4023L267.343 52.7023C267.744 53.0023 268.145 53.1023 268.847 52.8023C268.847 52.8023 269.048 52.7023 269.248 52.5023C269.449 52.4023 269.549 52.2023 269.75 52.1023C269.95 51.9023 270.151 51.7023 270.351 51.6023C270.552 51.4023 270.752 51.3023 270.953 51.1023C271.555 50.6023 272.156 50.1023 272.758 49.6023C273.36 49.1023 273.861 48.6023 274.362 48.1023L276.869 45.7023C276.568 46.7023 276.067 47.6023 275.465 48.4023C275.165 48.7023 274.964 49.2023 274.763 49.8023C274.763 50.1023 274.763 50.4023 274.763 50.7023C274.763 51.1023 274.864 51.3023 274.964 51.5023C275.064 51.7023 275.265 51.8023 275.465 51.8023C275.666 51.8023 275.967 51.6023 276.268 51.1023C276.268 51.1023 276.368 50.9023 276.468 50.9023C276.468 50.9023 276.669 50.8023 276.769 50.7023C277.17 50.5023 277.571 50.2023 277.872 49.8023L280.279 46.2023C280.981 45.4023 281.783 44.7023 282.685 44.0023C283.588 43.3023 284.591 42.7023 285.493 42.2023C285.493 42.2023 285.594 42.2023 285.794 42.2023H286.095C286.095 42.5023 286.095 42.7023 286.095 42.9023L283.789 47.0023L283.287 48.1023L282.385 49.6023L281.482 51.4023C280.981 52.2023 280.479 53.0023 280.178 53.9023C280.178 54.1023 279.978 54.3023 279.978 54.5023C279.978 54.7023 279.777 54.9023 279.577 55.1023L279.176 56.0023C279.075 56.2023 278.975 56.5023 278.975 56.9023V58.2023C279.176 58.5023 279.276 58.7023 279.376 58.8023C279.477 59.0023 279.677 59.2023 279.878 59.4023C280.078 59.6023 280.279 59.7023 280.379 59.8023C280.58 60.0023 280.88 60.1023 281.282 60.1023C281.482 60.1023 281.683 60.1023 281.984 60.1023C282.485 60.1023 282.986 59.9023 283.488 59.6023C283.989 59.4023 284.39 59.0023 284.791 58.6023C284.892 58.5023 285.092 58.3023 285.192 58.1023C285.293 57.9023 285.493 57.8023 285.594 57.6023L293.616 47.4023C293.315 47.8023 293.415 48.1023 293.616 48.5023C293.716 48.6023 293.917 48.8023 294.117 49.1023C294.518 49.5023 294.919 49.6023 295.321 49.6023C296.624 49.7023 297.828 49.4023 298.83 48.7023C299.131 48.6023 299.332 48.4023 299.532 48.2023C299.733 48.0023 299.933 47.8023 300.134 47.6023C300.334 47.5023 300.535 47.3023 300.736 47.2023C300.936 47.1023 301.137 46.9023 301.337 46.7023C301.638 46.5023 301.939 46.1023 302.24 45.7023C302.24 45.7023 302.24 45.7023 302.34 45.7023C302.44 45.7023 302.34 45.7023 302.44 45.7023C302.641 45.7023 302.741 45.7023 302.741 46.0023C302.741 46.2023 302.741 46.4023 302.741 46.6023C302.741 46.8023 302.541 47.1023 302.541 47.3023C302.541 47.7023 302.641 48.2023 303.042 48.7023C303.042 48.7023 303.243 48.7023 303.343 48.9023C303.343 48.9023 303.543 49.0023 303.644 49.1023C304.145 49.3023 304.747 49.4023 305.348 49.4023C306.351 49.4023 307.153 49.2023 307.855 48.9023C308.256 48.7023 308.557 48.5023 308.958 48.3023C309.36 48.1023 309.66 47.9023 309.961 47.7023C310.563 47.3023 311.064 46.9023 311.666 46.4023C312.167 46.0023 312.769 45.5023 313.371 45.1023C313.672 44.9023 313.872 44.6023 314.173 44.4023C314.273 44.3023 314.373 44.2023 314.474 44.1023C314.674 44.3023 314.975 44.5023 315.176 44.6023C315.577 44.8023 315.878 44.9023 316.178 45.0023C316.479 45.0023 316.78 45.1023 317.181 45.1023C317.582 45.1023 317.783 45.1023 318.184 45.1023C318.585 45.1023 318.986 45.0023 319.287 45.0023C320.089 45.0023 320.39 45.3023 320.29 45.9023C320.19 46.5023 319.889 47.1023 319.387 47.9023C318.886 48.7023 318.385 49.4023 317.683 50.2023C317.081 51.0023 316.58 51.5023 316.279 51.9023C315.376 52.7023 314.574 53.4023 313.872 53.9023C313.17 54.4023 312.268 55.0023 311.265 55.7023C311.265 55.9023 311.265 56.0023 311.566 56.1023C311.867 56.2023 312.167 56.3023 312.669 56.3023C313.17 56.3023 313.772 56.1023 314.574 55.7023C315.376 55.3023 316.178 54.7023 317.081 54.1023C317.984 53.5023 318.786 52.7023 319.588 51.9023C320.39 51.1023 321.092 50.2023 321.694 49.3023C322.295 48.4023 322.697 47.6023 322.997 46.8023C323.298 46.0023 323.298 45.3023 322.997 44.8023C322.697 44.2023 322.095 43.8023 321.192 43.4023L320.39 43.3023ZM254.708 39.6023C254.708 39.8023 254.507 40.0023 254.407 40.1023C254.407 40.2023 254.206 40.3023 254.106 40.5023C253.705 40.9023 253.204 41.4023 252.702 41.8023C252.201 42.2023 251.8 42.7023 251.298 43.1023C250.797 43.6023 250.195 44.1023 249.594 44.6023C248.992 45.1023 248.39 45.6023 247.889 46.1023C247.789 46.2023 247.588 46.3023 247.488 46.4023C247.387 46.4023 247.187 46.6023 247.087 46.7023H246.585C246.585 46.7023 246.585 46.7023 246.585 46.6023C246.585 46.6023 246.585 46.6023 246.585 46.4023V46.1023C247.087 45.4023 247.588 44.8023 248.089 44.1023C248.591 43.4023 249.092 42.8023 249.594 42.1023C249.995 41.7023 250.295 41.4023 250.697 41.0023C251.098 40.6023 251.399 40.3023 251.8 40.1023C252.1 39.9023 252.301 39.7023 252.602 39.5023C252.903 39.3023 253.204 39.2023 253.504 39.1023C253.605 39.1023 253.805 39.0023 253.905 39.0023C254.006 39.0023 254.206 39.0023 254.407 38.9023C254.607 38.9023 254.708 39.0023 254.708 39.3023C254.708 39.3023 254.708 39.3023 254.708 39.5023V39.6023ZM304.646 39.6023C304.646 39.8023 304.446 40.0023 304.346 40.1023C304.346 40.2023 304.145 40.3023 304.045 40.5023C303.644 40.9023 303.142 41.4023 302.641 41.8023C302.139 42.2023 301.738 42.7023 301.237 43.1023C300.736 43.6023 300.134 44.1023 299.532 44.6023C298.931 45.1023 298.329 45.6023 297.828 46.1023C297.727 46.2023 297.527 46.3023 297.426 46.4023C297.326 46.4023 297.126 46.6023 297.025 46.7023H296.524C296.524 46.7023 296.524 46.7023 296.524 46.6023C296.524 46.6023 296.524 46.6023 296.524 46.4023V46.1023C297.025 45.4023 297.527 44.8023 298.028 44.1023C298.529 43.4023 299.031 42.8023 299.532 42.1023C299.933 41.7023 300.234 41.4023 300.635 41.0023C301.036 40.6023 301.337 40.3023 301.738 40.1023C302.039 39.9023 302.24 39.7023 302.541 39.5023C302.841 39.3023 303.142 39.2023 303.443 39.1023C303.543 39.1023 303.744 39.0023 303.844 39.0023C303.944 39.0023 304.145 39.0023 304.346 38.9023C304.546 38.9023 304.646 39.0023 304.646 39.3023C304.646 39.3023 304.646 39.3023 304.646 39.5023V39.6023Z" fill="#F7B30B"/>
<path d="M332.424 43.3023C331.521 42.9023 330.819 42.8023 330.117 42.8023H327.811C327.61 42.7023 327.41 42.4023 327.41 42.0023C327.41 41.6023 327.41 41.2023 327.711 40.9023C328.011 40.5023 328.412 40.2023 328.914 39.8023C329.415 39.4023 330.017 39.1023 330.518 38.8023C331.12 38.5023 331.722 38.3023 332.323 38.1023C332.925 37.9023 333.426 37.8023 333.828 37.7023C334.028 37.7023 334.128 37.7023 334.329 37.5023C334.429 37.3023 334.529 37.1023 334.329 36.9023C334.128 36.5023 333.828 36.3023 333.426 36.3023C332.925 36.3023 332.223 36.3023 331.421 36.5023C330.619 36.7023 329.816 36.9023 329.114 37.2023C328.312 37.5023 327.61 37.9023 326.908 38.3023C326.206 38.7023 325.805 39.2023 325.504 39.6023C325.003 40.6023 324.802 41.6023 324.903 42.6023C325.003 43.6023 325.605 44.3023 326.607 44.8023C327.009 45.0023 327.309 45.1023 327.61 45.2023C327.911 45.2023 328.212 45.3023 328.613 45.3023C329.014 45.3023 329.215 45.3023 329.616 45.3023C330.017 45.3023 330.418 45.2023 330.719 45.2023C331.521 45.2023 331.822 45.5023 331.722 46.1023C331.621 46.7023 331.321 47.3023 330.819 48.1023C330.318 48.9023 329.816 49.6023 329.114 50.4023C328.513 51.2023 328.011 51.7023 327.711 52.1023C326.808 52.9023 326.006 53.6023 325.304 54.1023C324.602 54.6023 323.699 55.2023 322.697 55.9023C322.697 56.1023 322.697 56.2023 322.997 56.3023C323.298 56.4023 323.599 56.5023 324.1 56.5023C324.602 56.5023 325.204 56.3023 326.006 55.9023C326.808 55.5023 327.61 54.9023 328.513 54.3023C329.415 53.7023 330.217 52.9023 331.02 52.1023C331.822 51.3023 332.524 50.4023 333.126 49.5023C333.727 48.6023 334.128 47.8023 334.429 47.0023C334.73 46.2023 334.73 45.5023 334.429 45.0023C334.128 44.4023 333.527 44.0023 332.624 43.6023L332.424 43.3023Z" fill="#F7B30B"/>
<path d="M341.95 36.7023C341.95 36.7023 341.95 36.7023 342.05 36.7023C342.05 36.7023 342.151 36.7023 342.251 36.7023C342.853 36.7023 343.354 36.4023 343.755 36.0023C344.256 35.5023 344.557 35.0023 344.758 34.5023C345.059 34.2023 344.958 33.8023 344.557 33.4023C344.056 32.9023 343.454 32.8023 342.652 33.0023L342.451 33.2023C342.451 33.2023 342.351 33.3023 342.251 33.4023C342.151 33.7023 341.95 33.9023 341.85 34.2023C341.75 34.5023 341.649 34.8023 341.549 35.1023C341.549 35.1023 341.549 35.3023 341.549 35.4023C341.549 35.5023 341.549 35.6023 341.549 35.7023C341.549 35.8023 341.549 36.0023 341.549 36.1023C341.549 36.3023 341.75 36.5023 342.05 36.6023L341.95 36.7023Z" fill="#F7B30B"/>
<path d="M348.468 43.5023C348.067 43.5023 347.666 43.7023 347.365 43.8023C347.064 44.0023 346.663 44.2023 346.262 44.3023C345.56 44.7023 344.858 45.1023 344.156 45.5023C343.454 45.9023 342.752 46.2023 342.05 46.5023C341.348 46.8023 340.747 47.0023 340.145 47.3023C339.543 47.6023 339.042 47.7023 338.641 47.7023C338.641 47.7023 338.44 47.7023 338.24 47.7023C338.039 47.7023 338.039 47.6023 338.039 47.5023C338.039 47.4023 338.039 47.1023 338.24 46.8023C338.34 46.4023 338.44 46.2023 338.541 46.1023C338.741 45.7023 338.942 45.3023 339.243 44.8023C339.543 44.3023 339.744 43.8023 339.944 43.5023C340.245 42.8023 340.646 42.3023 340.947 41.8023C341.348 41.3023 341.75 40.8023 342.151 40.1023C342.151 40.1023 342.351 39.8023 342.552 39.4023C342.552 39.1023 342.552 38.9023 342.552 38.7023C342.251 38.1023 341.85 37.9023 341.348 37.9023H341.148C340.947 37.9023 340.747 37.9023 340.646 38.0023C340.546 38.0023 340.446 38.2023 340.346 38.4023C340.145 38.5023 340.045 38.7023 339.944 38.9023C339.844 39.1023 339.744 39.3023 339.644 39.6023C339.644 39.8023 339.443 40.0023 339.443 40.2023C339.443 40.4023 339.343 40.6023 339.243 40.7023C338.942 41.4023 338.44 42.2023 337.738 43.2023C337.036 44.2023 336.535 45.2023 336.134 46.3023C336.134 46.3023 335.933 46.5023 335.933 46.7023C335.933 46.9023 335.833 47.1023 335.733 47.3023C335.733 47.3023 335.733 47.5023 335.733 47.6023C335.733 47.8023 335.733 48.0023 335.733 48.4023C335.733 48.5023 335.733 48.6023 335.733 48.7023C335.733 48.7023 335.733 48.8023 335.733 49.0023C335.833 49.6023 336.234 50.1023 336.736 50.3023L337.337 50.5023C337.939 50.6023 338.44 50.5023 338.942 50.4023C339.443 50.2023 340.045 49.9023 340.847 49.5023C341.649 49.1023 342.451 48.6023 343.254 48.1023C344.056 47.6023 344.858 47.1023 345.66 46.5023C346.463 46.0023 347.064 45.5023 347.566 45.1023C347.766 44.9023 347.967 44.8023 348.268 44.6023C348.468 44.4023 348.669 44.3023 348.769 44.0023V43.8023C348.769 43.6023 348.769 43.5023 348.669 43.5023H348.468Z" fill="#F7B30B"/>
</svg>
